HIERARCHY
ROOT hip
{
	OFFSET 0.000000 0.000000 0.000000 
	CHANNELS 6 Xposition Yposition Zposition Xrotation Zrotation Yrotation
	JOINT abdomen
	{
		OFFSET 0.000000 3.402643 0.000000 
		CHANNELS 3 Xrotation Zrotation Yrotation
		JOINT chest
		{
			OFFSET 0.000000 8.438565 -0.680529 
			CHANNELS 3 Xrotation Zrotation Yrotation
			JOINT neck
			{
				OFFSET 0.000000 10.207942 -0.272212 
				CHANNELS 3 Xrotation Zrotation Yrotation
				JOINT head
				{
					OFFSET 0.000000 3.130431 0.000000 
					CHANNELS 3 Xrotation Zrotation Yrotation
					End Site
					{
						OFFSET 0.000000 3.130435 0.000000 
					}
				}
			}
			JOINT lCollar
			{
				OFFSET 3.470700 6.669187 -0.816635 
				CHANNELS 3 Yrotation Zrotation Xrotation
				JOINT lShldr
				{
					OFFSET 3.198488 0.000000 0.000000 
					CHANNELS 3 Zrotation Yrotation Xrotation
					JOINT lForeArm
					{
						OFFSET 10.139888 0.000000 0.000000 
						CHANNELS 3 Yrotation Zrotation Xrotation
						JOINT lHand
						{
							OFFSET 8.370511 0.000000 0.000000 
							CHANNELS 3 Zrotation Yrotation Xrotation
							End Site
							{
								OFFSET 4.083176 0.000000 0.000000 
							}
						}
					}
				}
			}
			JOINT rCollar
			{
				OFFSET -3.470700 6.669187 -0.816635 
				CHANNELS 3 Yrotation Zrotation Xrotation
				JOINT rShldr
				{
					OFFSET -3.198488 0.000000 0.000000 
					CHANNELS 3 Zrotation Yrotation Xrotation
					JOINT rForeArm
					{
						OFFSET -10.139888 0.000000 0.000000 
						CHANNELS 3 Yrotation Zrotation Xrotation
						JOINT rHand
						{
							OFFSET -8.370511 0.000000 0.000000 
							CHANNELS 3 Zrotation Yrotation Xrotation
							End Site
							{
								OFFSET -4.083176 0.000000 0.000000 
							}
						}
					}
				}
			}
		}
	}
	JOINT lThigh
	{
		OFFSET 5.308129 -1.633274 1.361059 
		CHANNELS 3 Xrotation Zrotation Yrotation
		JOINT lShin
		{
			OFFSET -2.041588 -20.007561 0.000000 
			CHANNELS 3 Xrotation Zrotation Yrotation
			JOINT lFoot
			{
				OFFSET 0.000000 -19.190928 -1.224953 
				CHANNELS 3 Xrotation Yrotation Zrotation
				End Site
				{
					OFFSET 0.000000 -2.449906 4.627600 
				}
			}
		}
	}
	JOINT rThigh
	{
		OFFSET -5.308129 -1.633274 1.361059 
		CHANNELS 3 Xrotation Zrotation Yrotation
		JOINT rShin
		{
			OFFSET 2.041588 -20.007561 0.000000 
			CHANNELS 3 Xrotation Zrotation Yrotation
			JOINT rFoot
			{
				OFFSET 0.000000 -19.190928 -1.224953 
				CHANNELS 3 Xrotation Yrotation Zrotation
				End Site
				{
					OFFSET 0.000000 -2.449906 4.627600 
				}
			}
		}
	}
}
MOTION
Frames: 8
Frame Time: 0.033333
1.699888 47.016525 1.187580 2.500000 -0.146484 -1.035156 10.103925 -9.698592 -4.665598 -6.503906 11.933596 3.175848 -9.610929 -2.115898 -4.787035 10.332031 -3.212891 -4.648985 2.000000 -2.000000 0.000000 18.564453 -11.220704 -45.468750 3.273226 -1.357157 2.432560 -13.784680 19.603298 16.942419 -2.000000 2.000000 0.000000 -23.671877 14.843750 -45.820309 -3.214770 1.298082 2.438552 11.420185 -24.374977 25.465107 -17.216650 15.585755 10.041234 36.569859 -3.244064 -10.727401 -20.211826 -0.075284 -5.443188 -11.129793 -14.604677 -3.751847 27.394665 3.456134 0.861839 -17.498154 -0.460323 10.337961 
1.960760 46.993244 1.019329 2.529297 0.039063 0.068366 10.103925 -9.698592 -4.665598 -5.693359 12.480469 3.234533 -9.449121 -3.209687 -7.201648 12.998047 -3.613281 -7.315069 2.000000 -2.000000 0.000000 17.568359 -12.734376 -45.627151 3.292991 -1.366317 2.442894 -13.494604 19.247276 15.008902 -2.000000 2.000000 0.000000 -22.880857 13.662109 -44.763321 -3.253860 1.317578 2.439726 12.244737 -23.321489 22.104122 -17.993492 14.750877 8.975180 36.959045 -3.224763 -10.574683 -20.117865 -0.172074 -5.107196 -11.024324 -15.174115 -3.946734 27.270035 3.471296 -0.106240 -17.235641 -0.450399 10.910420 
2.185390 46.995884 0.866304 1.699219 0.039063 -0.283203 10.103925 -9.698592 -4.665598 -3.613281 13.134767 3.544922 -9.215430 -4.225287 -9.570447 15.849609 -5.224609 -9.716798 2.000000 -2.000000 0.000000 15.839844 -12.958984 -45.705318 3.292991 -1.366317 2.442894 -12.885935 18.476486 14.916414 -2.000000 2.000000 0.000000 -23.046877 15.859375 -45.820313 -3.253640 1.318165 2.429980 11.041618 -23.666927 21.432436 -17.388901 14.380758 8.606421 37.192913 -3.195591 -9.787833 -20.163792 -0.199208 -5.124381 -10.222953 -15.455986 -4.187883 26.858265 3.465788 0.378287 -16.795126 -0.512517 11.004090 
2.362829 46.217297 0.559749 1.015625 0.605469 -1.025288 10.103925 -9.698592 -4.665598 -1.582030 13.164063 3.898708 -8.951183 -5.096771 -11.517651 19.863653 -6.552946 -11.787813 2.000000 -2.000000 0.000000 14.306641 -13.330078 -45.781254 3.302537 -1.366905 2.433148 -12.329900 17.316154 14.758368 -2.000000 2.000000 0.000000 -23.310547 18.828125 -48.219501 -3.253640 1.318165 2.429980 9.712498 -25.672716 21.759073 -18.772598 13.948599 8.134624 40.965466 -3.007640 -9.091821 -21.870041 -0.149949 -5.197093 -15.672610 -16.570772 -2.620117 37.358898 3.027083 0.854776 -21.356247 -0.676958 11.446340 
2.391143 45.628479 0.042661 1.103516 0.937500 -2.538903 10.103925 -9.698592 -4.665598 0.117188 12.695313 4.279490 -8.803225 -5.442976 -12.257709 24.228518 -6.640625 -12.764801 2.000000 -2.000000 0.000000 13.554688 -13.671875 -46.171879 3.292991 -1.366317 2.442894 -11.890671 17.846581 15.046355 -2.000000 2.000000 0.000000 -23.203125 22.089842 -51.138908 -3.253860 1.317578 2.439726 8.291331 -27.200825 24.034864 -20.783792 13.968338 7.696167 44.164803 -2.854485 -7.782315 -23.095333 0.016549 -5.705878 -19.566095 -16.890844 -1.450879 42.408581 2.773237 1.582306 -22.892632 -0.891627 11.344110 
2.386235 45.442352 -0.454419 -0.224609 0.634766 -2.753906 10.103925 -9.698592 -4.665598 3.818361 12.460938 4.982576 -8.607151 -5.624200 -12.616739 27.656252 -5.478516 -13.331010 2.000000 -2.000000 0.000000 13.740235 -15.869141 -47.727276 3.292991 -1.366317 2.442894 -9.861351 18.720755 15.726553 -2.000000 2.000000 0.000000 -22.626951 24.384766 -55.581905 -3.204785 1.298669 2.428806 5.985861 -28.030682 28.671570 -20.670422 14.323238 7.388996 45.257813 -2.812783 -7.689175 -22.984535 0.000264 -5.736380 -19.448549 -16.607418 -1.118927 43.644436 2.743878 2.677004 -23.140804 -1.129439 10.897464 
2.292482 45.197212 -1.144165 -0.253906 -0.791016 -2.724609 10.103925 -9.698592 -4.665598 6.582031 13.544923 5.441740 -8.467604 -5.710164 -12.999676 29.863285 -4.169922 -13.789775 2.000000 -2.000000 0.000000 13.154297 -17.421877 -48.938469 3.302537 -1.366905 2.433148 -8.547956 19.087658 15.673444 -2.000000 2.000000 0.000000 -21.572264 26.640623 -58.755390 -3.185460 1.288334 2.437964 4.693879 -29.018164 32.042408 -22.633577 16.120323 6.842927 47.104164 -2.735080 -8.224854 -22.926216 -0.109108 -5.611802 -20.495218 -14.831980 -0.654316 44.654739 2.698074 2.711456 -22.984135 -1.946042 10.719414 
1.968939 45.052746 -2.016382 1.230469 -1.845703 -4.082345 10.103925 -9.698592 -4.665598 7.871095 13.623047 5.685894 -8.489330 -5.367122 -12.278749 30.966797 -3.408203 -13.027431 2.000000 -2.000000 0.000000 12.598122 -17.608023 -49.222496 3.302537 -1.366905 2.433148 -8.242314 19.084663 15.506706 -2.000000 2.000000 0.000000 -20.751951 30.419924 -62.924744 -3.155917 1.269425 2.427045 3.618118 -30.594370 35.868767 -25.541601 17.788578 5.996026 47.889576 -2.676962 -7.105438 -22.207647 -0.035420 -6.587740 -23.109407 -13.912748 -0.421663 44.620525 2.764045 8.302341 -22.715498 -1.951316 8.779249 
